<?xml version="1.0" encoding="UTF-8"?>
<svg
  xmlns="http://www.w3.org/2000/svg"
  viewBox="0 0 1200 240"
  role="img"
  aria-label="Arquati dal 1959"
>
  <defs>
    <style>
      .arquati-word {
        font-family: Impact, Haettenschweiler, "Arial Narrow Bold", Arial, sans-serif;
        font-weight: 900;
        fill: #1b1b1b;
      }
      .arquati-red {
        fill: #e53935;
      }
      .arquati-tagline {
        font-family: Arial, Helvetica, sans-serif;
        font-weight: 700;
        fill: #2b2b2b;
        letter-spacing: 0.35em;
      }
    </style>
  </defs>

  <!-- Sun icon -->
  <g transform="translate(95 84)">
    <g stroke="#e53935" stroke-width="16" stroke-linecap="round">
      <line x1="0" y1="-62" x2="0" y2="-92" />
      <line x1="0" y1="-62" x2="0" y2="-92" transform="rotate(30)" />
      <line x1="0" y1="-62" x2="0" y2="-92" transform="rotate(60)" />
      <line x1="0" y1="-62" x2="0" y2="-92" transform="rotate(90)" />
      <line x1="0" y1="-62" x2="0" y2="-92" transform="rotate(120)" />
      <line x1="0" y1="-62" x2="0" y2="-92" transform="rotate(150)" />
      <line x1="0" y1="-62" x2="0" y2="-92" transform="rotate(180)" />
      <line x1="0" y1="-62" x2="0" y2="-92" transform="rotate(210)" />
      <line x1="0" y1="-62" x2="0" y2="-92" transform="rotate(240)" />
      <line x1="0" y1="-62" x2="0" y2="-92" transform="rotate(270)" />
      <line x1="0" y1="-62" x2="0" y2="-92" transform="rotate(300)" />
      <line x1="0" y1="-62" x2="0" y2="-92" transform="rotate(330)" />
    </g>
    <circle r="52" fill="#e53935" />
    <text
      x="0"
      y="18"
      text-anchor="middle"
      font-family="Impact, Haettenschweiler, 'Arial Narrow Bold', Arial, sans-serif"
      font-size="72"
      font-weight="900"
      fill="#111827"
    >
      A
    </text>
  </g>

  <!-- Main wordmark -->
  <text x="200" y="120" class="arquati-word" font-size="150">ARQUATI</text>

  <!-- "DAL 1959" block -->
  <g transform="translate(910 40)">
    <text x="0" y="58" class="arquati-word arquati-red" font-size="66">DAL</text>
    <text x="0" y="170" class="arquati-word arquati-red" font-size="150">1959</text>
  </g>

  <!-- Tagline -->
  <text x="255" y="205" class="arquati-tagline" font-size="34">DOVE C'È IL SOLE</text>
</svg>
